<?xml version="1.0" encoding="UTF-8"?>
<!DOCTYPE svg PUBLIC "-//W3C//DTD SVG 1.1//EN" "http://www.w3.org/Graphics/SVG/1.1/DTD/svg11.dtd">
<!-- Creator: CorelDRAW X8 -->
<svg xmlns="http://www.w3.org/2000/svg" xml:space="preserve" width="297mm" height="210mm" version="1.1" style="shape-rendering:geometricPrecision; text-rendering:geometricPrecision; image-rendering:optimizeQuality; fill-rule:evenodd; clip-rule:evenodd"
viewBox="0 0 29700 21000"
 xmlns:xlink="http://www.w3.org/1999/xlink">
 <defs>
  <style type="text/css">
   <![CDATA[
    .fil0 {fill:#5B5B5B}
    .fil1 {fill:#E31E24}
   ]]>
  </style>
 </defs>
 <g id="Layer_x0020_1">
  <metadata id="CorelCorpID_0Corel-Layer"/>
  <g id="_788321808">
   <g>
    <path class="fil0" d="M23544 9433l-43 304 -958 -116 54 -387 5 -37c30,-127 84,-223 165,-288 76,-63 166,-87 269,-75 109,13 194,63 256,151 65,91 88,202 70,333l-10 46 -271 -32 7 -27c6,-44 0,-80 -19,-107 -18,-27 -44,-42 -79,-46 -10,-2 -20,-2 -30,0 -34,2 -60,17 -78,43 -19,26 -32,67 -40,123l-4 30 706 85zm415 -964c-215,254 -455,283 -720,88 -130,-97 -201,-201 -212,-314 -10,-113 37,-232 143,-357 216,-254 456,-283 720,-88 131,97 201,201 212,314 11,113 -37,232 -143,357zm-495 -175c59,44 114,67 162,68 49,1 89,-17 120,-53 30,-35 39,-74 26,-118 -12,-44 -47,-87 -106,-131 -59,-43 -113,-66 -163,-67 -49,-1 -89,15 -119,51 -30,34 -38,73 -27,116 13,47 49,91 107,134zm971 -586c-109,-138 -190,-245 -241,-322 -51,-77 -96,-159 -134,-244l317 -77 21 39c38,67 74,123 107,168 32,44 70,89 113,132l11 -38c9,-41 14,-74 16,-98 2,-24 -1,-47 -7,-69 -5,-17 -13,-38 -26,-63 -13,-26 -29,-58 -50,-97l-11 -17 308 -75 12 25 28 48c28,49 53,88 75,119 21,30 46,61 76,93l6 -53c4,-59 6,-110 5,-153 -2,-42 -8,-84 -19,-123l297 -73c25,88 38,186 38,293 0,87 -8,193 -26,319 -7,57 -17,114 -30,170 -13,56 -29,111 -48,166l-157 38 -59 -55c-31,-31 -64,-67 -99,-106 -34,-40 -64,-78 -91,-114 -4,94 -16,186 -36,277l-18 72 -179 44c-35,-36 -70,-74 -105,-115 -36,-40 -67,-77 -94,-111zm1205 68l305 -856 668 208 -82 230 -356 -110 -141 394 380 118 -82 230 -692 -214zm844 -144l-355 -112 67 -188 356 112 -68 188zm166 602l-245 -204 663 -655 368 324 29 26c49,50 81,102 98,155 26,81 25,155 -5,223 -17,39 -40,72 -68,100 -77,76 -174,104 -291,84l-33 -7c9,57 34,107 72,150l-193 190c-39,-43 -72,-88 -99,-133 -27,-45 -56,-105 -87,-181 -21,-52 -37,-107 -47,-166l185 -182 24 21c9,7 18,14 27,18 9,5 20,9 31,13 11,3 23,6 36,7 12,2 24,2 35,1 27,-2 50,-13 69,-32 13,-13 22,-28 27,-47 5,-19 5,-37 1,-54 -5,-17 -14,-34 -27,-51 -14,-17 -33,-36 -57,-57l-29 -21 -484 478zm660 1167l-214 -712 196 -51c88,48 178,85 271,111 66,18 121,32 166,40 46,8 90,13 135,17l-81 -269 251 -66 197 659c-81,21 -217,18 -408,-10 -82,-11 -173,-32 -274,-62l-79 -25 90 303 -250 65zm-110 544c68,-318 268,-446 598,-384 164,31 277,94 342,190 65,96 80,222 46,379 -68,317 -268,445 -598,383 -163,-31 -277,-94 -342,-190 -65,-96 -80,-222 -46,-378zm526 -55c-74,-14 -134,-11 -178,9 -44,20 -70,52 -80,97 -10,44 2,83 34,117 31,34 84,57 158,71 74,14 133,11 178,-9 45,-19 72,-51 81,-95 10,-44 -1,-82 -32,-115 -35,-36 -88,-61 -161,-75zm-926 817l238 -211 667 652 -208 185 -84 23c-49,11 -97,19 -144,26 -48,6 -98,10 -150,11l148 145 -237 210 -667 -652 237 -211 218 213c60,9 123,11 189,8 25,-1 54,-4 87,-9 33,-4 63,-10 89,-15l-383 -375zm-546 425l260 868 -678 177 -71 -234 362 -94 -120 -401 -385 101 -70 -234 702 -183zm-614 559l362 -92 58 191 -363 93 -57 -192z"/>
    <polygon class="fil1" points="26195,8329 21832,11447 23148,11757 21198,14170 24927,11213 24051,10787 "/>
   </g>
   <path class="fil1" d="M2145 12513l-676 0 0 -1723 861 0 83 0c285,20 510,94 674,220 156,120 234,273 234,458 0,195 -87,358 -262,489 -182,138 -419,206 -710,206l-105 -7 0 -486 61 5c98,0 174,-19 228,-59 54,-39 81,-89 81,-151 0,-18 -2,-36 -8,-53 -15,-59 -53,-102 -114,-128 -62,-26 -156,-40 -281,-40l-66 0 0 1269zm2328 35c-715,0 -1072,-300 -1072,-902 0,-296 91,-519 272,-668 182,-150 448,-224 800,-224 714,0 1071,301 1071,902 0,297 -91,520 -272,669 -181,149 -448,223 -799,223zm-332 -899c0,135 31,238 91,307 61,70 142,104 243,104 100,0 179,-34 239,-103 129,-147 125,-463 -1,-611 -61,-71 -141,-106 -240,-106 -98,0 -176,33 -235,100 -65,73 -97,176 -97,309zm1875 356c-142,-303 -242,-537 -301,-703 -59,-166 -102,-337 -130,-512l674 0 19 81c39,142 78,262 119,359 40,97 91,196 152,297l44 -67c40,-72 69,-130 86,-174 16,-44 24,-87 24,-130 0,-34 -5,-77 -16,-129 -11,-53 -27,-120 -47,-201l-11 -36 654 0 11 50 28 103c29,102 57,186 83,252 25,67 59,136 99,207l41 -95c43,-107 75,-201 96,-280 21,-80 31,-159 31,-237l633 0c0,174 -30,359 -89,557 -47,161 -124,354 -229,579 -46,102 -97,203 -154,301 -57,98 -120,193 -188,286l-334 0 -86 -130c-46,-71 -92,-152 -138,-240 -46,-89 -85,-173 -119,-253 -60,173 -136,339 -226,498l-74 125 -382 0c-49,-82 -98,-168 -146,-259 -48,-91 -89,-174 -124,-249zm2369 508l0 -1723 1449 0 0 464 -773 0 0 794 823 0 0 465 -1499 0zm1549 -735l-773 -5 0 -378 773 3 0 380zm776 718l-677 17 0 -1723 1041 0 83 0c149,11 276,43 381,95 162,81 272,186 331,317 33,75 50,149 50,223 0,199 -103,357 -309,472l-61 31c101,67 213,107 337,120l0 500c-125,-12 -242,-33 -351,-63 -109,-29 -243,-78 -403,-145 -112,-46 -220,-103 -323,-172l0 -481 69 0c24,0 46,-2 68,-7 21,-5 42,-12 65,-20 22,-9 43,-20 64,-34 22,-14 39,-27 54,-42 37,-37 55,-80 55,-129 0,-34 -10,-67 -31,-99 -21,-33 -48,-58 -80,-76 -33,-17 -72,-30 -118,-37 -46,-7 -103,-11 -171,-11l-74 8 0 1256zm2959 17l-1631 0 0 -364c151,-126 279,-262 386,-407 76,-104 134,-192 177,-266 42,-73 79,-147 110,-222l-615 0 0 -464 1507 0c0,150 -82,382 -246,696 -70,136 -164,282 -284,438l-97 124 693 0 0 465zm1193 35c-714,0 -1071,-300 -1071,-902 0,-296 90,-519 272,-668 181,-150 447,-224 799,-224 714,0 1071,301 1071,902 0,297 -90,520 -272,669 -181,149 -447,223 -799,223zm-331 -899c0,135 30,238 91,307 61,70 142,104 243,104 99,0 179,-34 239,-103 59,-68 89,-169 89,-303 0,-134 -30,-237 -91,-308 -61,-71 -141,-106 -240,-106 -97,0 -176,33 -235,100 -64,73 -96,176 -96,309zm2239 864l-677 0 0 -1723 591 0 160 72c89,44 173,91 254,141 81,49 161,106 241,170l0 -383 673 0 0 1723 -673 0 0 -563c-78,-86 -168,-167 -271,-244 -39,-29 -86,-60 -142,-94 -56,-35 -108,-64 -156,-88l0 989zm1441 0l0 -1723 1450 0 0 464 -773 0 0 794 822 0 0 465 -1499 0zm1549 -735l-773 -5 0 -378 773 3 0 380z"/>
   <path class="fil0" d="M1551 13198c32,-30 77,-54 134,-70 57,-16 131,-24 222,-24l295 0 0 236 -320 0c-8,0 -13,2 -17,6 -5,4 -6,9 -4,15 1,4 2,8 5,11 7,6 22,14 45,23l134 54c14,4 26,10 38,18 46,27 80,54 102,81 23,28 38,60 45,97 3,14 4,29 4,45 0,58 -24,110 -73,156 -48,45 -121,80 -216,104 -78,21 -175,31 -291,31l-169 0 0 -262 76 5 134 2c43,0 72,-1 87,-3 15,-2 29,-5 43,-10 15,-5 22,-14 22,-28 0,-8 -3,-14 -7,-18 -5,-5 -10,-9 -16,-13 -6,-3 -20,-9 -42,-19l-181 -77c-11,-5 -21,-11 -33,-18 -11,-7 -23,-17 -35,-28 -43,-41 -64,-89 -64,-144 0,-14 0,-29 2,-44 1,-14 9,-33 22,-56 14,-23 33,-47 58,-70zm727 -86l-3 -8 354 0 14 38 23 53 12 33 6 13c12,26 26,52 42,77 16,24 34,49 55,73l21 25c14,-17 26,-34 35,-52 8,-17 19,-47 31,-88 9,-27 17,-65 27,-112l10 -60 343 0c0,51 -5,99 -14,144 -10,44 -28,100 -55,168 -17,39 -35,76 -55,110 -52,92 -108,169 -168,229 -60,61 -126,110 -196,145 -41,21 -78,36 -109,46 -31,10 -64,18 -99,23 -35,4 -61,8 -78,9 -17,2 -31,3 -40,3l-98 0 0 -237 59 -2c78,-7 149,-28 210,-63 -35,-37 -68,-74 -97,-113 -29,-39 -59,-85 -91,-139 -35,-59 -60,-105 -75,-137 -16,-33 -32,-78 -50,-135l-14 -43zm1083 86c32,-30 77,-54 134,-70 57,-16 131,-24 222,-24l295 0 0 236 -320 0c-8,0 -14,2 -17,6 -5,4 -6,9 -4,15 0,4 2,8 5,11 7,6 22,14 45,23l134 54c14,4 26,10 38,18 45,27 80,54 102,81 23,28 38,60 45,97 3,14 4,29 4,45 0,58 -24,110 -73,156 -48,45 -121,80 -216,104 -78,21 -175,31 -291,31l-169 0 0 -262 76 5 134 2c43,0 72,-1 87,-3 15,-2 29,-5 43,-10 14,-5 21,-14 21,-28 0,-8 -2,-14 -7,-18 -4,-5 -9,-9 -15,-13 -6,-3 -20,-9 -42,-19l-181 -77c-11,-5 -21,-11 -33,-18 -11,-7 -23,-17 -35,-28 -43,-41 -65,-89 -65,-144 0,-14 1,-29 3,-44 1,-14 9,-33 22,-56 14,-23 33,-47 58,-70zm917 142l-203 0 0 -236 749 0 0 236 -202 0 0 641 -344 0 0 -641zm587 641l0 -877 738 0 0 236 -394 0 0 404 419 0 0 237 -763 0zm788 -374l-393 -3 0 -192 393 1 0 194zm97 374l-46 0 0 -877 322 0c24,18 48,38 72,61 24,24 47,49 68,76l19 22 68 88 33 41 15 -19 16 -21 28 -34 59 -73c30,-36 55,-65 76,-84 21,-20 45,-39 70,-57l320 0 0 877 -343 0 0 -394c-9,9 -16,17 -21,22 -3,3 -13,17 -32,42 -54,74 -90,149 -107,224l-167 2c-14,-74 -51,-151 -110,-229l-42 -48 0 381 -298 0zm1294 -783c32,-30 77,-54 134,-70 57,-16 131,-24 222,-24l295 0 0 236 -320 0c-8,0 -13,2 -17,6 -5,4 -6,9 -4,15 1,4 2,8 5,11 7,6 22,14 45,23l134 54c14,4 26,10 38,18 46,27 80,54 102,81 23,28 38,60 45,97 3,14 4,29 4,45 0,58 -24,110 -73,156 -48,45 -120,80 -216,104 -78,21 -175,31 -291,31l-169 0 0 -262 76 5 134 2c43,0 72,-1 87,-3 15,-2 29,-5 44,-10 14,-5 21,-14 21,-28 0,-8 -3,-14 -7,-18 -5,-5 -10,-9 -16,-13 -6,-3 -20,-9 -42,-19l-181 -77c-11,-5 -21,-11 -33,-18 -11,-7 -23,-17 -35,-28 -43,-41 -64,-89 -64,-144 0,-14 0,-29 2,-44 1,-14 9,-33 22,-56 14,-23 33,-47 58,-70zm1375 -166l29 -37 266 0c-66,74 -115,156 -147,246 -32,90 -48,191 -48,304 0,110 16,211 48,301 32,91 81,173 147,248l-266 0 -29 -37c-56,-71 -100,-142 -131,-213 -31,-71 -50,-142 -57,-213 -3,-31 -5,-62 -5,-91 0,-91 16,-177 47,-259 31,-82 79,-165 146,-249zm345 949l0 -877 345 0 0 877 -345 0zm790 0l-344 0 0 -877 301 0 81 36c45,23 88,47 129,72 42,25 82,54 123,87l0 -195 343 0 0 877 -343 0 0 -286c-40,-44 -86,-86 -138,-125 -20,-14 -44,-30 -72,-48 -29,-17 -55,-32 -80,-44l0 503zm734 0l0 -877 406 0 48 0c99,7 187,35 262,83 114,72 183,166 207,280 6,26 8,54 8,81 0,18 0,32 -1,42 -1,10 -4,23 -8,40 -27,111 -86,197 -179,259 -93,61 -211,92 -355,92l-388 0zm344 -632l0 389 31 2c81,0 140,-32 180,-97 14,-24 21,-51 21,-81 0,-25 -5,-49 -14,-75 -26,-78 -89,-124 -188,-136l-30 -2zm669 632l0 -877 344 0 0 877 -344 0zm718 0l-333 0 14 -73c31,-157 65,-284 101,-382 37,-98 97,-221 180,-370l31 -52 296 0c56,82 106,168 152,258 53,106 96,210 130,314 33,103 58,205 74,305l-322 0c-3,-24 -10,-55 -21,-93 -4,-13 -9,-32 -17,-56l-218 0c0,-17 3,-34 7,-52 4,-18 8,-33 11,-48 3,-14 8,-30 13,-49 0,0 5,-11 13,-31l125 0c-7,-32 -25,-77 -52,-134 -8,-20 -21,-47 -39,-80l-33 70c-31,74 -54,142 -70,206 -16,64 -28,138 -38,224l-4 43zm902 113l-267 0c65,-74 114,-156 147,-247 33,-91 50,-192 50,-302 0,-113 -16,-214 -49,-304 -32,-89 -81,-171 -148,-246l267 0 30 37c56,71 99,142 130,213 30,70 49,141 57,212 3,28 5,60 5,95 0,173 -64,341 -192,505l-30 37zm1074 -113l-345 0 0 -877 439 0 42 0c145,10 260,48 343,112 80,61 119,139 119,233 0,99 -44,182 -133,249 -93,70 -213,105 -361,105l-54 -4 0 -247 31 2c50,0 89,-9 116,-29 28,-20 42,-46 42,-78 0,-9 -2,-18 -5,-26 -7,-31 -27,-52 -58,-66 -31,-13 -79,-20 -143,-20l-33 0 0 646zm858 -265c-76,-123 -133,-232 -173,-328 -40,-95 -69,-190 -87,-284l357 0 51 124 52 129 8 17 65 135 25 -57c33,-79 57,-143 73,-194 15,-51 27,-102 34,-154l340 0c-9,90 -29,177 -60,262 -34,92 -92,216 -175,370 -44,82 -97,164 -158,245l-165 0c-33,-41 -65,-84 -98,-131 -29,-40 -59,-85 -89,-134zm928 -376l-203 0 0 -236 749 0 0 236 -202 0 0 641 -344 0 0 -641zm901 641l-324 0 0 -280 324 0 0 280zm498 0l0 -877 345 0 0 640 341 0 0 237 -686 0zm869 -641l-203 0 0 -236 749 0 0 236 -202 0 0 641 -344 0 0 -641zm587 641l0 -877 406 0 48 0c99,7 187,35 263,83 113,72 182,166 206,280 6,26 9,54 9,81 0,18 -1,32 -2,42 -1,10 -3,23 -8,40 -26,111 -86,197 -178,259 -93,61 -212,92 -356,92l-388 0zm344 -632l0 389 31 2c81,0 141,-32 180,-97 14,-24 21,-51 21,-81 0,-25 -4,-49 -14,-75 -26,-78 -89,-124 -188,-136l-30 -2zm983 632l-324 0 0 -280 324 0 0 280z"/>
  </g>
 </g>
</svg>
